/* XPM */
static char *dummy[]={
"64 64 371 2",
"Qt c None",
".# c None",
".k c None",
".x c None",
"dK c None",
"dW c None",
"dx c None",
"dL c None",
"dw c None",
"#E c None",
".w c #857e64",
"dM c #97947d",
".l c #6c5e2f",
".j c #756e58",
"di c #8e8d73",
"#S c #ffa731",
".a c #574e2f",
"dy c #a1a289",
"#b c #756b54",
".L c #7d7661",
"dh c #e0eadc",
"cd c #feae41",
"dV c #e3ecdf",
".y c #524929",
"#p c #fcad40",
".0 c #6c5d2e",
".b c #595034",
".i c #746d55",
"dv c #dee8d8",
"dJ c #dde7d8",
".Z c #696351",
"#7 c #ffae44",
"dN c #abae97",
"b3 c #ffaf45",
"#c c #fddc7e",
".M c #433a1b",
"co c #b5b8a1",
"c4 c #d8e0d0",
".v c #69624c",
".z c #5a5235",
"ak c #ffae42",
"bQ c #ffad41",
"#D c #ffb147",
"c5 c #8e9077",
"dz c #9fa28a",
"dU c #cfd7c5",
".K c #5a533b",
".m c #473f25",
"dj c #8f9178",
".h c #59523b",
"az c #ffac3e",
".c c #50482f",
"bE c #ffab3e",
"dg c #c7d0bd",
".J c #64583a",
"#q c #ffe083",
"aO c #ffab3d",
"dO c #999d86",
"bs c #ffaa3d",
".f c #655b40",
"#a c #9f7c42",
".g c #51492f",
".u c #5f553a",
"dI c #bec6b2",
".d c #5a5239",
".e c #5d5437",
".A c #625635",
"be c #ffaa3b",
"a2 c #ffaa3c",
"cP c #bcc3b0",
"cn c #d0a45d",
"du c #c0c8b3",
"#R c #ffaf44",
".n c #564d33",
"cA c #a7ad98",
".1 c #b69e5d",
".N c #5d5333",
"dT c #b6bda7",
"cc c #ffae41",
".t c #705f3a",
"#o c #fdb34a",
".Y c #534b33",
".o c #77663d",
"ce c #e2cd85",
"dA c #999d85",
"cQ c #787960",
".I c #91743e",
".O c #bfa563",
"#F c #ffe082",
".X c #8c6d36",
"dP c #9a9f88",
"b4 c #ffe185",
"cN c #a99461",
"c3 c #aeb5a0",
"#6 c #ffb047",
"#d c #fddc80",
"c6 c #898c73",
"c1 c #b19051",
"cz c #8e8968",
"dd c #b3965a",
".r c #b99550",
"dS c #9fa48c",
".q c #ba9853",
"b2 c #fea938",
".s c #8a703c",
"cy c #dea34a",
"dk c #888b71",
".p c #99814b",
"dq c #c0a263",
"dQ c #9da28a",
".B c #937e4b",
"dr c #90855e",
"cO c #a0a48c",
"cp c #a9a783",
"dR c #999e85",
"dH c #a2a891",
"dp c #ddb76c",
"cB c #91947a",
".H c #d7a550",
"do c #e0be74",
"df c #999e87",
"#T c #ffe07f",
"dn c #cdb77b",
"dc c #f1b85b",
"aj c #ffb451",
"#C c #ffb650",
"c2 c #8d8e73",
"dt c #9da38a",
"## c #e1a54a",
"cM c #f4b250",
".W c #edaf51",
"bP c #fea633",
"de c #868567",
"bR c #ffe286",
"dB c #8c9077",
"dm c #aea881",
"cC c #c2ba8a",
"c8 c #cdbd86",
"cS c #d7c78d",
".C c #e1bb6a",
"cR c #999c7f",
"dl c #96997e",
"ds c #86886c",
"c0 c #f8b855",
"cm c #fab351",
"cq c #f0d98e",
"c7 c #9b9c7d",
".2 c #f0ce79",
"ay c #ffb656",
"dE c #8b8c6e",
"dD c #959779",
"bD c #fda32e",
"dG c #8b9077",
".P c #f1cb73",
"c9 c #f6d07b",
"#8 c #ffdf7b",
"#r c #ffdf85",
"dF c #7f8167",
"dC c #8a8e73",
"bF c #ffe182",
"aN c #feb24f",
"br c #fda32d",
"cD c #fada86",
".G c #efb85a",
"bd c #fda533",
"a1 c #fdac41",
"cT c #fbd67e",
"cf c #fdde86",
"db c #fec25f",
"#Q c #ffbd63",
"al c #ffdd75",
"#n c #febd5f",
".D c #f3c66b",
"bt c #ffdf7c",
"cb c #feb858",
"cx c #febd60",
"d. c #fecf70",
"aA c #ffdd75",
"bf c #ffe080",
".F c #f9c262",
".E c #fac768",
"aP c #ffe48d",
"a3 c #ffe79a",
"#G c #ffde7d",
"#e c #fee194",
".V c #fcbf5f",
"#. c #fec166",
"da c #ffc766",
"d# c #ffcc6c",
"b5 c #ffde7e",
"#5 c #ffc77c",
"cL c #fec064",
"cZ c #ffc263",
"b1 c #fdb658",
"cr c #ffdd83",
".3 c #fad98c",
".Q c #fdd47d",
"#B c #ffcf8c",
"cU c #ffd781",
"cl c #ffce8b",
"#U c #ffda70",
"cE c #ffdc84",
"ai c #fec881",
"bS c #ffda71",
"bO c #fbb251",
".U c #ffcf7f",
"#s c #ffebb6",
"ax c #fcbc69",
"cY c #fecb7b",
"#m c #ffd9a4",
"cg c #ffda75",
".R c #ffdc94",
".9 c #ffdca6",
"#Y c #977a72",
"#J c #9e837b",
"#u c #b39d97",
"#v c #b9a5a0",
"ab c #bba8a2",
"#g c #c6b4ab",
"#X c #c7b7b2",
"#Z c #d1c4c0",
"ac c #d4c6c1",
"#j c #d7ccc8",
"#w c #d9cecb",
"#h c #dacfcc",
"#K c #dcd2cf",
"#x c #ddd3d0",
"#i c #e4dcda",
"ar c #e6cdb2",
"aq c #e7ded8",
"aa c #ede7e5",
"#k c #eedfd0",
"#f c #f0debb",
"#t c #f1eae1",
"#y c #f2d5b2",
".4 c #f2dcb4",
"av c #f58a00",
"bX c #f58a01",
"c. c #f58b01",
"aK c #f58b03",
"af c #f58d07",
"ag c #f58e08",
"bY c #f58f0a",
"au c #f58f0b",
"#I c #f5f0ea",
"bL c #f6910e",
"aL c #f6910f",
"aJ c #f69211",
"bW c #f69415",
"bz c #f69517",
"aZ c #f69519",
"#2 c #f6961a",
"aI c #f69b25",
"aH c #f69c28",
"b9 c #f79b21",
"aw c #f79b25",
"at c #f79e2b",
"#3 c #f79e2c",
"cI c #f7a132",
"cH c #f7a53a",
"aY c #f7a53b",
"#N c #f7a63d",
"as c #f7ba6c",
"#L c #f7f4f2",
"bc c #f8991f",
"bq c #f89a21",
"a0 c #f89f2b",
"cv c #f8a53a",
"bn c #f8aa47",
"by c #f8ab47",
"ae c #f8ae4f",
"bb c #f8af51",
"aG c #f8c077",
"cu c #f9ac37",
"ah c #f9b052",
"cJ c #f9b459",
"bK c #f9b55a",
"aV c #f9b55d",
"aX c #f9bb6a",
".7 c #f9f5ef",
"bC c #faa537",
"aM c #faac46",
"cj c #fab13e",
"bV c #fab74f",
"bZ c #fac075",
"ck c #fac175",
"c# c #fac177",
"bM c #fac178",
"aW c #fac27a",
"#O c #fac37c",
"bp c #fac47e",
"#z c #fac682",
"bA c #fac786",
"bm c #fac888",
"ad c #fae3c6",
".5 c #faf2e6",
"#0 c #faf4ee",
"#W c #faf6f0",
"aU c #fbc77d",
"cG c #fbc876",
"b. c #fbcc90",
"b# c #fbcd93",
"#1 c #fbcf96",
"bB c #fbd5a2",
"ba c #fbd6a6",
"#M c #fbdbb2",
"b8 c #fcc151",
"cw c #fcc273",
"cK c #fcc577",
"#4 c #fccc8e",
"bo c #fcd8a9",
"a9 c #fcdcb0",
".8 c #fcf0dd",
"cX c #fdcd82",
"cW c #fdd18a",
"bJ c #fdd379",
"bx c #fddfb4",
"#A c #fde1bc",
"b0 c #fde1bd",
"bN c #fde1be",
"aF c #fdebc9",
"ap c #fdf6e4",
".6 c #fdfbf6",
"ci c #feca46",
"bU c #fecc50",
"ct c #fece59",
"cV c #fed992",
"aT c #fedb85",
"#P c #fedbab",
"ca c #feddb1",
"a8 c #fee2a7",
"#l c #fee8cc",
"bl c #fef3e0",
"bi c #ffc934",
"a7 c #ffc935",
"bT c #ffca36",
"b6 c #ffca37",
"bH c #ffca39",
"a6 c #ffcb3a",
"bv c #ffcb3b",
"b7 c #ffcb40",
"bj c #ffcc40",
"bI c #ffcd42",
"bh c #ffcd43",
"ch c #ffcf49",
"aS c #ffcf4a",
"am c #ffd14e",
"bu c #ffd253",
"an c #ffd257",
"aB c #ffd45c",
"#9 c #ffd55d",
"bG c #ffd660",
"bg c #ffd661",
"aC c #ffd664",
"aD c #ffd769",
"a5 c #ffd86b",
"cs c #ffd972",
".T c #ffdc9f",
"cF c #ffdd8c",
"bw c #ffde87",
"aR c #ffe08b",
".S c #ffe0a6",
"a. c #ffe18f",
"aE c #ffe293",
"bk c #ffe49a",
"aQ c #ffe59b",
"ao c #ffe7a6",
"a4 c #ffe8a5",
"#V c #ffe9ac",
"#H c #ffecb7",
"a# c #fff9e9",
"QtQtQtQtQtQtQtQtQtQtQtQtQtQtQtQtQtQtQtQtQtQtQtQtQtQtQtQtQtQtQtQtQtQtQtQtQtQtQtQtQtQtQtQtQtQtQtQtQtQtQtQtQtQtQtQtQtQtQtQtQtQtQtQt",
"QtQtQtQtQtQtQtQtQtQtQtQtQtQtQtQtQtQtQtQtQtQtQtQtQtQtQtQtQtQtQtQtQtQtQtQtQtQtQtQtQtQtQtQtQtQtQtQtQtQtQtQtQtQtQtQtQtQtQtQtQtQtQtQt",
"QtQtQtQtQtQtQtQtQtQtQtQtQtQtQtQtQtQtQtQtQtQtQtQtQtQtQtQtQtQtQtQtQtQtQtQtQtQtQtQtQtQtQtQtQtQtQtQtQtQtQtQtQtQtQtQtQtQtQtQtQtQtQtQt",
"QtQtQtQtQtQtQtQtQtQtQtQtQtQtQtQtQtQtQtQtQtQtQtQtQtQtQtQtQtQtQtQtQtQtQtQtQtQtQtQtQtQtQtQtQtQtQtQtQtQtQtQtQtQtQtQtQtQtQtQtQtQtQtQt",
"QtQtQtQtQtQtQtQtQtQtQtQtQtQtQtQtQtQtQtQtQtQtQtQtQtQtQtQtQtQtQtQtQtQtQtQtQtQtQtQtQtQtQtQtQtQtQtQtQtQtQtQtQtQtQtQtQtQtQtQtQtQtQtQt",
"QtQtQtQtQtQtQtQtQtQtQtQtQtQtQtQtQtQtQtQtQtQtQtQtQtQtQtQtQtQtQtQtQtQtQtQtQtQtQtQtQtQtQtQtQtQtQtQtQtQtQtQtQtQtQtQtQtQtQtQtQtQtQtQt",
"QtQtQtQtQtQtQtQtQtQtQtQtQtQtQtQtQtQtQtQtQtQtQtQtQtQtQtQtQtQtQtQtQtQtQtQtQtQtQtQtQtQtQtQtQtQtQtQtQtQtQtQtQtQtQtQtQtQtQtQtQtQtQtQt",
"QtQtQtQtQtQtQtQtQtQtQtQtQtQtQtQtQtQtQtQtQtQtQtQtQtQtQtQtQtQtQtQtQtQtQtQtQtQtQtQtQtQtQtQtQtQtQtQtQtQtQtQtQtQtQtQtQtQtQtQtQtQtQtQt",
"QtQtQtQtQtQtQtQtQtQtQtQtQtQtQtQtQtQtQtQtQtQtQtQtQtQtQtQtQtQtQtQtQtQtQtQtQtQtQtQtQtQtQtQtQtQtQtQtQtQtQtQtQtQtQtQtQtQtQtQtQtQtQtQt",
"QtQtQtQtQtQtQtQtQtQtQtQtQtQtQtQtQtQtQtQtQtQtQtQtQtQtQtQtQtQtQtQtQtQtQtQtQtQtQtQtQtQtQtQtQtQtQtQtQtQtQtQtQtQtQtQtQtQtQtQtQtQtQtQt",
"QtQtQtQtQtQtQtQtQtQtQtQtQtQtQtQtQtQtQtQtQtQtQtQtQtQtQtQtQtQtQtQtQtQtQtQtQtQtQtQtQtQtQtQtQtQtQtQtQtQtQtQtQtQtQtQtQtQtQtQtQtQtQtQt",
"QtQtQtQtQtQtQtQtQtQtQtQtQtQtQtQtQtQtQtQtQtQtQtQtQtQtQtQtQtQtQtQtQtQtQtQtQtQtQtQtQtQtQtQtQtQtQtQtQtQtQtQtQtQtQtQtQtQtQtQtQtQtQtQt",
"QtQtQtQtQtQtQtQtQtQtQtQtQtQtQtQtQtQtQtQtQtQtQtQtQtQtQtQtQtQtQtQtQtQtQtQtQtQtQtQtQtQtQtQtQtQtQtQtQtQtQtQtQtQtQtQtQtQtQtQtQtQtQtQt",
"QtQtQtQtQtQtQtQtQtQtQtQtQtQtQtQtQtQtQtQtQtQtQtQtQtQtQtQtQtQtQtQtQtQtQtQtQtQtQtQtQtQtQtQtQtQtQtQtQtQtQtQtQtQtQtQtQtQtQtQtQtQtQtQt",
"QtQtQtQtQtQtQtQtQtQtQtQtQtQtQtQtQtQtQtQtQtQtQtQtQtQtQtQtQtQtQtQtQtQtQtQtQtQtQtQtQtQtQtQtQtQtQtQtQtQtQtQtQtQtQtQtQtQtQtQtQtQtQtQt",
"QtQtQtQtQtQtQtQtQtQtQtQtQtQtQtQtQtQtQtQtQtQtQtQtQtQtQtQtQtQtQtQtQtQtQtQtQtQtQtQtQtQtQtQtQtQtQtQtQtQtQtQtQtQtQtQtQtQtQtQtQtQtQtQt",
"QtQtQtQtQtQtQtQtQtQtQtQtQtQtQtQtQtQtQtQtQtQtQtQtQtQtQtQtQtQtQtQtQtQtQtQtQtQtQtQtQtQtQtQtQtQtQtQtQtQtQtQtQtQtQtQtQtQtQtQtQtQtQtQt",
"QtQtQtQtQtQtQtQtQtQtQtQtQtQtQtQtQtQtQtQtQtQtQtQtQtQtQtQtQtQtQtQtQtQtQtQtQtQtQtQtQtQtQtQtQtQtQtQtQtQtQtQtQtQtQtQtQtQtQtQtQtQtQtQt",
"QtQtQtQtQtQtQtQtQtQtQtQtQtQtQtQtQtQtQtQtQtQtQtQtQtQtQtQtQtQtQtQtQtQtQtQtQtQtQtQtQtQtQtQtQtQtQtQtQtQtQtQtQtQtQtQtQtQtQtQtQtQtQtQt",
"QtQtQtQtQtQtQtQtQtQtQtQtQtQtQtQtQtQtQtQtQtQtQtQtQtQt.#.a.b.c.d.e.f.g.h.i.jQtQtQtQtQtQtQtQtQtQtQtQtQtQtQtQtQtQtQtQtQtQtQtQtQtQtQt",
"QtQtQtQtQtQtQtQtQtQtQtQtQtQtQtQtQtQtQtQtQtQtQtQtQt.k.l.m.n.o.p.q.r.s.t.u.v.w.xQtQtQtQtQtQtQtQtQtQtQtQtQtQtQtQtQtQtQtQtQtQtQtQtQt",
"QtQtQtQtQtQtQtQtQtQtQtQtQtQtQtQtQtQtQtQtQtQtQtQtQt.y.z.A.B.C.D.E.F.G.H.I.J.K.LQtQtQtQtQtQtQtQtQtQtQtQtQtQtQtQtQtQtQtQtQtQtQtQtQt",
"QtQtQtQtQtQtQtQtQtQtQtQtQtQtQtQtQtQtQtQtQtQtQtQtQt.M.N.O.P.Q.R.S.T.U.V.W.X.Y.ZQtQtQtQtQtQtQtQtQtQtQtQtQtQtQtQtQtQtQtQtQtQtQtQtQt",
"QtQtQtQtQtQtQtQtQtQtQtQtQtQtQtQtQtQtQtQtQtQtQtQtQt.0.1.2.3.4.5.6.7.8.9#.###a#bQtQtQtQtQtQtQtQtQtQtQtQtQtQtQtQtQtQtQtQtQtQtQtQtQt",
"QtQtQtQtQtQtQtQtQtQtQtQtQtQtQtQtQtQtQtQtQtQtQtQtQt#c#d#e#f#g#h#i#j#k#l#m#n#o#pQtQtQtQtQtQtQtQtQtQtQtQtQtQtQtQtQtQtQtQtQtQtQtQtQt",
"QtQtQtQtQtQtQtQtQtQtQtQtQtQtQtQtQtQtQtQtQtQtQtQtQt#q#r#s#t#u#v#w#x#y#z#A#B#C#D#EQtQtQtQtQtQtQtQtQtQtQtQtQtQtQtQtQtQtQtQtQtQtQtQt",
"QtQtQtQtQtQtQtQtQtQtQtQtQtQtQtQtQtQtQtQtQtQtQtQtQt#F#G#H#I#u#J#K#L#M#N#O#P#Q#R#SQtQtQtQtQtQtQtQtQtQtQtQtQtQtQtQtQtQtQtQtQtQtQtQt",
"QtQtQtQtQtQtQtQtQtQtQtQtQtQtQtQtQtQtQtQtQtQtQtQtQt#T#U#V#W#X#Y#Z#0#1#2#3#4#5#6#7QtQtQtQtQtQtQtQtQtQtQtQtQtQtQtQtQtQtQtQtQtQtQtQt",
"QtQtQtQtQtQtQtQtQtQtQtQtQtQtQtQtQtQtQtQtQtQtQtQtQt#8#9a.a#aaabacadaeafagahaiajakQtQtQtQtQtQtQtQtQtQtQtQtQtQtQtQtQtQtQtQtQtQtQtQt",
"QtQtQtQtQtQtQtQtQtQtQtQtQtQtQtQtQtQtQtQtQtQtQtQtQtalamanaoapaqarasatauavawaxayazQtQtQtQtQtQtQtQtQtQtQtQtQtQtQtQtQtQtQtQtQtQtQtQt",
"QtQtQtQtQtQtQtQtQtQtQtQtQtQtQtQtQtQtQtQtQtQtQtQtQtaAaBaCaDaEaFaGaHaIaJaKaLaMaNaOQtQtQtQtQtQtQtQtQtQtQtQtQtQtQtQtQtQtQtQtQtQtQtQt",
"QtQtQtQtQtQtQtQtQtQtQtQtQtQtQtQtQtQtQtQtQtQtQtQtQtaPaQaRanaSaTaUaVaWaXaYaZa0a1a2QtQtQtQtQtQtQtQtQtQtQtQtQtQtQtQtQtQtQtQtQtQtQtQt",
"QtQtQtQtQtQtQtQtQtQtQtQtQtQtQtQtQtQtQtQtQtQtQtQtQta3a4a5a6a7ana8a9b.b#babbbcbdbeQtQtQtQtQtQtQtQtQtQtQtQtQtQtQtQtQtQtQtQtQtQtQtQt",
"QtQtQtQtQtQtQtQtQtQtQtQtQtQtQtQtQtQtQtQtQtQtQtQtQtbfbgbha7bibjbkblbmbnbobpbqbrbsQtQtQtQtQtQtQtQtQtQtQtQtQtQtQtQtQtQtQtQtQtQtQtQt",
"QtQtQtQtQtQtQtQtQtQtQtQtQtQtQtQtQtQtQtQtQtQtQtQtQtbtbua7bibibvbwbxbybzbAbBbCbDbEQtQtQtQtQtQtQtQtQtQtQtQtQtQtQtQtQtQtQtQtQtQtQtQt",
"QtQtQtQtQtQtQtQtQtQtQtQtQtQtQtQtQtQtQtQtQtQtQtQtQtbFbGbHbibibIbJbKbLaubMbNbObPbQQtQtQtQtQtQtQtQtQtQtQtQtQtQtQtQtQtQtQtQtQtQtQtQt",
"QtQtQtQtQtQtQtQtQtQtQtQtQtQtQtQtQtQtQtQtQtQtQtQtQtbRbSbIbibTbUbVbWbXbYbZb0b1b2b3QtQtQtQtQtQtQtQtQtQtQtQtQtQtQtQtQtQtQtQtQtQtQtQt",
"QtQtQtQtQtQtQtQtQtQtQtQtQtQtQtQtQtQtQtQtQtQtQtQtQtb4b5anb6b7b8b9c.avauc#cacbcccdQtQtQtQtQtQtQtQtQtQtQtQtQtQtQtQtQtQtQtQtQtQtQtQt",
"QtQtQtQtQtQtQtQtQtQtQtQtQtQtQtQtQtQtQtQtQtQtQtQtQtcecfcgchcicjauavavaJckclcmcncoQtQtQtQtQtQtQtQtQtQtQtQtQtQtQtQtQtQtQtQtQtQtQtQt",
"QtQtQtQtQtQtQtQtQtQtQtQtQtQtQtQtQtQtQtQtQtQtQtQtQtcpcqcrcsctcuagbXaucvcwcxcyczcAQtQtQtQtQtQtQtQtQtQtQtQtQtQtQtQtQtQtQtQtQtQtQtQt",
"QtQtQtQtQtQtQtQtQtQtQtQtQtQtQtQtQtQtQtQtQtQtQtQtQtcBcCcDcEcFcGcHcIcJcKcLcMcNcOcPQtQtQtQtQtQtQtQtQtQtQtQtQtQtQtQtQtQtQtQtQtQtQtQt",
"QtQtQtQtQtQtQtQtQtQtQtQtQtQtQtQtQtQtQtQtQtQtQtQtQtcQcRcScTcUcVcWcXcYcZc0c1c2c3c4QtQtQtQtQtQtQtQtQtQtQtQtQtQtQtQtQtQtQtQtQtQtQtQt",
"QtQtQtQtQtQtQtQtQtQtQtQtQtQtQtQtQtQtQtQtQtQtQtQtQtc5c6c7c8c9d.d#dadbdcdddedfdgdhQtQtQtQtQtQtQtQtQtQtQtQtQtQtQtQtQtQtQtQtQtQtQtQt",
"QtQtQtQtQtQtQtQtQtQtQtQtQtQtQtQtQtQtQtQtQtQtQtQtQtdidjdkdldmdndodpdqdrdsdtdudvdwQtQtQtQtQtQtQtQtQtQtQtQtQtQtQtQtQtQtQtQtQtQtQtQt",
"QtQtQtQtQtQtQtQtQtQtQtQtQtQtQtQtQtQtQtQtQtQtQtQtQtdxdydzdAdBdCdDdEdFdGdHdIdJdKQtQtQtQtQtQtQtQtQtQtQtQtQtQtQtQtQtQtQtQtQtQtQtQtQt",
"QtQtQtQtQtQtQtQtQtQtQtQtQtQtQtQtQtQtQtQtQtQtQtQtQtQtdLdMdNdOdPdQdRdSdTdUdVdWQtQtQtQtQtQtQtQtQtQtQtQtQtQtQtQtQtQtQtQtQtQtQtQtQtQt",
"QtQtQtQtQtQtQtQtQtQtQtQtQtQtQtQtQtQtQtQtQtQtQtQtQtQtQtQtQtQtQtQtQtQtQtQtQtQtQtQtQtQtQtQtQtQtQtQtQtQtQtQtQtQtQtQtQtQtQtQtQtQtQtQt",
"QtQtQtQtQtQtQtQtQtQtQtQtQtQtQtQtQtQtQtQtQtQtQtQtQtQtQtQtQtQtQtQtQtQtQtQtQtQtQtQtQtQtQtQtQtQtQtQtQtQtQtQtQtQtQtQtQtQtQtQtQtQtQtQt",
"QtQtQtQtQtQtQtQtQtQtQtQtQtQtQtQtQtQtQtQtQtQtQtQtQtQtQtQtQtQtQtQtQtQtQtQtQtQtQtQtQtQtQtQtQtQtQtQtQtQtQtQtQtQtQtQtQtQtQtQtQtQtQtQt",
"QtQtQtQtQtQtQtQtQtQtQtQtQtQtQtQtQtQtQtQtQtQtQtQtQtQtQtQtQtQtQtQtQtQtQtQtQtQtQtQtQtQtQtQtQtQtQtQtQtQtQtQtQtQtQtQtQtQtQtQtQtQtQtQt",
"QtQtQtQtQtQtQtQtQtQtQtQtQtQtQtQtQtQtQtQtQtQtQtQtQtQtQtQtQtQtQtQtQtQtQtQtQtQtQtQtQtQtQtQtQtQtQtQtQtQtQtQtQtQtQtQtQtQtQtQtQtQtQtQt",
"QtQtQtQtQtQtQtQtQtQtQtQtQtQtQtQtQtQtQtQtQtQtQtQtQtQtQtQtQtQtQtQtQtQtQtQtQtQtQtQtQtQtQtQtQtQtQtQtQtQtQtQtQtQtQtQtQtQtQtQtQtQtQtQt",
"QtQtQtQtQtQtQtQtQtQtQtQtQtQtQtQtQtQtQtQtQtQtQtQtQtQtQtQtQtQtQtQtQtQtQtQtQtQtQtQtQtQtQtQtQtQtQtQtQtQtQtQtQtQtQtQtQtQtQtQtQtQtQtQt",
"QtQtQtQtQtQtQtQtQtQtQtQtQtQtQtQtQtQtQtQtQtQtQtQtQtQtQtQtQtQtQtQtQtQtQtQtQtQtQtQtQtQtQtQtQtQtQtQtQtQtQtQtQtQtQtQtQtQtQtQtQtQtQtQt",
"QtQtQtQtQtQtQtQtQtQtQtQtQtQtQtQtQtQtQtQtQtQtQtQtQtQtQtQtQtQtQtQtQtQtQtQtQtQtQtQtQtQtQtQtQtQtQtQtQtQtQtQtQtQtQtQtQtQtQtQtQtQtQtQt",
"QtQtQtQtQtQtQtQtQtQtQtQtQtQtQtQtQtQtQtQtQtQtQtQtQtQtQtQtQtQtQtQtQtQtQtQtQtQtQtQtQtQtQtQtQtQtQtQtQtQtQtQtQtQtQtQtQtQtQtQtQtQtQtQt",
"QtQtQtQtQtQtQtQtQtQtQtQtQtQtQtQtQtQtQtQtQtQtQtQtQtQtQtQtQtQtQtQtQtQtQtQtQtQtQtQtQtQtQtQtQtQtQtQtQtQtQtQtQtQtQtQtQtQtQtQtQtQtQtQt",
"QtQtQtQtQtQtQtQtQtQtQtQtQtQtQtQtQtQtQtQtQtQtQtQtQtQtQtQtQtQtQtQtQtQtQtQtQtQtQtQtQtQtQtQtQtQtQtQtQtQtQtQtQtQtQtQtQtQtQtQtQtQtQtQt",
"QtQtQtQtQtQtQtQtQtQtQtQtQtQtQtQtQtQtQtQtQtQtQtQtQtQtQtQtQtQtQtQtQtQtQtQtQtQtQtQtQtQtQtQtQtQtQtQtQtQtQtQtQtQtQtQtQtQtQtQtQtQtQtQt",
"QtQtQtQtQtQtQtQtQtQtQtQtQtQtQtQtQtQtQtQtQtQtQtQtQtQtQtQtQtQtQtQtQtQtQtQtQtQtQtQtQtQtQtQtQtQtQtQtQtQtQtQtQtQtQtQtQtQtQtQtQtQtQtQt",
"QtQtQtQtQtQtQtQtQtQtQtQtQtQtQtQtQtQtQtQtQtQtQtQtQtQtQtQtQtQtQtQtQtQtQtQtQtQtQtQtQtQtQtQtQtQtQtQtQtQtQtQtQtQtQtQtQtQtQtQtQtQtQtQt",
"QtQtQtQtQtQtQtQtQtQtQtQtQtQtQtQtQtQtQtQtQtQtQtQtQtQtQtQtQtQtQtQtQtQtQtQtQtQtQtQtQtQtQtQtQtQtQtQtQtQtQtQtQtQtQtQtQtQtQtQtQtQtQtQt",
"QtQtQtQtQtQtQtQtQtQtQtQtQtQtQtQtQtQtQtQtQtQtQtQtQtQtQtQtQtQtQtQtQtQtQtQtQtQtQtQtQtQtQtQtQtQtQtQtQtQtQtQtQtQtQtQtQtQtQtQtQtQtQtQt",
"QtQtQtQtQtQtQtQtQtQtQtQtQtQtQtQtQtQtQtQtQtQtQtQtQtQtQtQtQtQtQtQtQtQtQtQtQtQtQtQtQtQtQtQtQtQtQtQtQtQtQtQtQtQtQtQtQtQtQtQtQtQtQtQt"};
