/* XPM */
static char *dummy[]={
"32 32 111 2",
"Qt c None",
"#L c #929479",
".e c #655f47",
".# c #4c442a",
".f c #635939",
"#S c #d6e0cd",
".m c #534c33",
".u c #90703a",
".n c #b09a5b",
".d c #6b5e3e",
".a c #675a36",
"#M c #999e85",
"#D c #8d9075",
"#K c #aaaf9a",
".l c #8d7344",
"#R c #9fa38c",
".C c #f8b353",
".g c #8b7846",
".b c #786841",
".c c #7b6b46",
".v c #fada7f",
"#v c #a09d78",
"#C c #a7a282",
"#u c #cda968",
".K c #ffbe66",
"#N c #959579",
"#m c #fbb75b",
"#n c #d2c080",
".D c #ffdd79",
"#f c #fddc79",
"#Q c #9c9e84",
".t c #cd9e56",
"#E c #a39e79",
".k c #b7914f",
".o c #d3b773",
"#J c #9f9976",
".S c #fdb659",
".h c #b6995a",
"#e c #fcac43",
".L c #ffdb6e",
".9 c #ffdc71",
".0 c #fcab41",
"#O c #9b997a",
".8 c #fba330",
"#P c #a09f80",
".T c #ffe184",
".1 c #ffe288",
"#B c #cba869",
".B c #fbc67b",
".j c #d0a860",
".i c #d3ae67",
"#I c #bba268",
".w c #f6dea2",
"#F c #c4b27a",
"#w c #cebb7e",
"#t c #f0ba6d",
"#H c #deb76e",
"#G c #debc74",
"#o c #f2d174",
".s c #ecc17f",
".J c #fcbf6d",
"#l c #fcc47a",
"#A c #f2b65e",
".p c #e8cd92",
".E c #fde6a6",
"#g c #fed45c",
"#x c #f5d07b",
".R c #faa941",
"#d c #fbbe6e",
".Z c #f9a335",
".7 c #fab357",
".M c #ffdf83",
"#. c #ffd251",
".r c #f7daab",
".2 c #ffd86b",
".U c #ffdb77",
"#s c #f9ad48",
".A c #f9d19c",
".q c #f5ddb2",
"#z c #fbb757",
".x c #dfcdb1",
"#y c #fcc264",
"#p c #fdcc5b",
".G c #ccbcb5",
".y c #d7cac4",
".F c #dbcab6",
".O c #e4ccb0",
".H c #edc99f",
".z c #edd9c5",
".P c #f0b366",
".N c #f0dcb0",
"#r c #f69619",
"#j c #f69717",
".Q c #f79d2a",
".Y c #f7a439",
"#k c #f8ab46",
".X c #f8b55d",
"#q c #f9ab31",
"#c c #f9b359",
"#b c #f9b656",
".I c #f9ba69",
".6 c #fabf73",
".W c #face81",
"#i c #fbb437",
".5 c #fbce8c",
"#h c #feca44",
"#a c #fecc5c",
".4 c #fed574",
".V c #feda7a",
"## c #ffca39",
".3 c #ffce4a",
"QtQtQtQtQtQtQtQtQtQtQtQtQtQtQtQtQtQtQtQtQtQtQtQtQtQtQtQtQtQtQtQt",
"QtQtQtQtQtQtQtQtQtQtQtQtQtQtQtQtQtQtQtQtQtQtQtQtQtQtQtQtQtQtQtQt",
"QtQtQtQtQtQtQtQtQtQtQtQtQtQtQtQtQtQtQtQtQtQtQtQtQtQtQtQtQtQtQtQt",
"QtQtQtQtQtQtQtQtQtQtQtQtQtQtQtQtQtQtQtQtQtQtQtQtQtQtQtQtQtQtQtQt",
"QtQtQtQtQtQtQtQtQtQtQtQtQtQtQtQtQtQtQtQtQtQtQtQtQtQtQtQtQtQtQtQt",
"QtQtQtQtQtQtQtQtQtQtQtQtQtQtQtQtQtQtQtQtQtQtQtQtQtQtQtQtQtQtQtQt",
"QtQtQtQtQtQtQtQtQtQtQtQtQtQtQtQtQtQtQtQtQtQtQtQtQtQtQtQtQtQtQtQt",
"QtQtQtQtQtQtQtQtQtQtQtQtQtQtQtQtQtQtQtQtQtQtQtQtQtQtQtQtQtQtQtQt",
"QtQtQtQtQtQtQtQtQtQtQtQtQtQtQtQtQtQtQtQtQtQtQtQtQtQtQtQtQtQtQtQt",
"QtQtQtQtQtQtQtQtQtQtQtQtQt.#.a.b.c.d.eQtQtQtQtQtQtQtQtQtQtQtQtQt",
"QtQtQtQtQtQtQtQtQtQtQtQt.f.g.h.i.j.k.l.mQtQtQtQtQtQtQtQtQtQtQtQt",
"QtQtQtQtQtQtQtQtQtQtQtQt.n.o.p.q.r.s.t.uQtQtQtQtQtQtQtQtQtQtQtQt",
"QtQtQtQtQtQtQtQtQtQtQtQt.v.w.x.y.z.A.B.CQtQtQtQtQtQtQtQtQtQtQtQt",
"QtQtQtQtQtQtQtQtQtQtQtQt.D.E.F.G.H.I.J.KQtQtQtQtQtQtQtQtQtQtQtQt",
"QtQtQtQtQtQtQtQtQtQtQtQt.L.M.N.O.P.Q.R.SQtQtQtQtQtQtQtQtQtQtQtQt",
"QtQtQtQtQtQtQtQtQtQtQtQt.T.U.V.W.X.Y.Z.0QtQtQtQtQtQtQtQtQtQtQtQt",
"QtQtQtQtQtQtQtQtQtQtQtQt.1.2.3.4.5.6.7.8QtQtQtQtQtQtQtQtQtQtQtQt",
"QtQtQtQtQtQtQtQtQtQtQtQt.9#.###a#b#c#d#eQtQtQtQtQtQtQtQtQtQtQtQt",
"QtQtQtQtQtQtQtQtQtQtQtQt#f#g#h#i#j#k#l#mQtQtQtQtQtQtQtQtQtQtQtQt",
"QtQtQtQtQtQtQtQtQtQtQtQt#n#o#p#q#r#s#t#uQtQtQtQtQtQtQtQtQtQtQtQt",
"QtQtQtQtQtQtQtQtQtQtQtQt#v#w#x#y#z#A#B#CQtQtQtQtQtQtQtQtQtQtQtQt",
"QtQtQtQtQtQtQtQtQtQtQtQt#D#E#F#G#H#I#J#KQtQtQtQtQtQtQtQtQtQtQtQt",
"QtQtQtQtQtQtQtQtQtQtQtQt#L#M#N#O#P#Q#R#SQtQtQtQtQtQtQtQtQtQtQtQt",
"QtQtQtQtQtQtQtQtQtQtQtQtQtQtQtQtQtQtQtQtQtQtQtQtQtQtQtQtQtQtQtQt",
"QtQtQtQtQtQtQtQtQtQtQtQtQtQtQtQtQtQtQtQtQtQtQtQtQtQtQtQtQtQtQtQt",
"QtQtQtQtQtQtQtQtQtQtQtQtQtQtQtQtQtQtQtQtQtQtQtQtQtQtQtQtQtQtQtQt",
"QtQtQtQtQtQtQtQtQtQtQtQtQtQtQtQtQtQtQtQtQtQtQtQtQtQtQtQtQtQtQtQt",
"QtQtQtQtQtQtQtQtQtQtQtQtQtQtQtQtQtQtQtQtQtQtQtQtQtQtQtQtQtQtQtQt",
"QtQtQtQtQtQtQtQtQtQtQtQtQtQtQtQtQtQtQtQtQtQtQtQtQtQtQtQtQtQtQtQt",
"QtQtQtQtQtQtQtQtQtQtQtQtQtQtQtQtQtQtQtQtQtQtQtQtQtQtQtQtQtQtQtQt",
"QtQtQtQtQtQtQtQtQtQtQtQtQtQtQtQtQtQtQtQtQtQtQtQtQtQtQtQtQtQtQtQt",
"QtQtQtQtQtQtQtQtQtQtQtQtQtQtQtQtQtQtQtQtQtQtQtQtQtQtQtQtQtQtQtQt"};
