/* XPM */
static char *dummy[]={
"16 16 29 1",
". c None",
"A c #a1a186",
"x c #a09d7b",
"c c #d5a864",
"# c #ceb57c",
"z c #b1a77e",
"y c #ada276",
"w c #caac72",
"t c #d1bc7a",
"g c #f7b964",
"s c #f1b766",
"d c #ecd49e",
"k c #f9a83f",
"o c #fab458",
"b c #e0bf8a",
"p c #f5ce5f",
"a c #dbc190",
"h c #fcdd86",
"l c #ffd45b",
"v c #dfae5f",
"u c #e4ba69",
"f c #efc692",
"r c #f7ad47",
"e c #e7d1af",
"q c #fbbb44",
"j c #f4b564",
"i c #f4cf89",
"n c #fabb62",
"m c #fdc958",
"................",
"................",
"................",
"................",
"................",
"......#abc......",
"......defg......",
"......hijk......",
"......lmno......",
"......pqrs......",
"......tuvw......",
"......xyzA......",
"................",
"................",
"................",
"................"};
